<?xml version="1.0" encoding="UTF-8"?>
<svg id="Layer_2" data-name="Layer 2" xmlns="http://www.w3.org/2000/svg" xmlns:xlink="http://www.w3.org/1999/xlink" viewBox="0 0 1025.65 320.31">
  <defs>
    <style>
      .cls-1 {
        fill: url(#linear-gradient-2);
      }

      .cls-2 {
        fill: url(#linear-gradient);
      }

      .cls-3 {
        fill: #fff;
      }

      .cls-4 {
        fill: #a97c50;
      }

      .cls-5 {
        fill: #3c1912;
      }
    </style>
    <linearGradient id="linear-gradient" x1="265.88" y1="58.53" x2="138.33" y2="27.68" gradientUnits="userSpaceOnUse">
      <stop offset=".42" stop-color="#f58322"/>
      <stop offset="1" stop-color="#f6ed44"/>
    </linearGradient>
    <linearGradient id="linear-gradient-2" x1="154.84" y1="248.1" x2="156.17" y2="248.1" gradientUnits="userSpaceOnUse">
      <stop offset="0" stop-color="#2a3a8e"/>
      <stop offset=".44" stop-color="#29388b"/>
      <stop offset=".66" stop-color="#293484"/>
      <stop offset=".84" stop-color="#272d76"/>
      <stop offset=".99" stop-color="#262364"/>
      <stop offset="1" stop-color="#262262"/>
    </linearGradient>
  </defs>
  <g id="Layer_1-2" data-name="Layer 1">
    <circle class="cls-2" cx="177.79" cy="37.22" r="37.22"/>
    <g>
      <path class="cls-5" d="M296.66,238.97c0-17.27,13.04-30.05,30.82-30.05,7.64,0,13.25,2.21,15.68,3.38v14.99c-4.33-2-9.46-4.28-15.95-4.28-8.99,0-14.87,5.87-14.87,15.96s5.88,16.09,14.87,16.09c6.49,0,11.62-2.28,15.95-4.28v14.99c-2.43,1.17-7.64,3.38-15.75,3.38-18.04,0-30.75-12.23-30.75-30.19Z"/>
      <path class="cls-5" d="M345.18,239.04c0-17.06,13.11-30.19,29.67-30.19s29.67,13.12,29.67,30.19-13.11,30.19-29.67,30.19-29.67-13.12-29.67-30.19ZM388.84,239.04c0-10.15-6.29-16.09-13.99-16.09s-13.99,5.94-13.99,16.09,6.29,16.1,13.99,16.1,13.99-5.94,13.99-16.1Z"/>
      <path class="cls-5" d="M409.93,267.5v-56.99h6.96l27.78,29.08c-.07-3.38-.07-6.84-.07-10.22v-18.79h14.87v56.92h-7.7l-26.96-28.39c.07,3.38.13,6.84.13,10.22v18.17h-15Z"/>
      <path class="cls-5" d="M464.87,238.97c0-17.27,13.04-30.05,30.82-30.05,7.64,0,13.25,2.21,15.68,3.38v14.99c-4.33-2-9.46-4.28-15.95-4.28-8.99,0-14.87,5.87-14.87,15.96s5.88,16.09,14.87,16.09c6.49,0,11.62-2.28,15.95-4.28v14.99c-2.43,1.17-7.64,3.38-15.75,3.38-18.04,0-30.75-12.23-30.75-30.19Z"/>
      <path class="cls-5" d="M564.42,267.5h-17.71l-11.76-20.03h-2.23v20.03h-15.27v-56.92h19.46c14.06,0,22.17,8.01,22.17,18.58,0,6.91-3.45,12.64-9.8,15.75l15.14,22.59ZM532.72,224.19v11.33h4.12c4.87,0,6.83-2.49,6.83-5.66s-1.89-5.66-6.83-5.66h-4.12Z"/>
      <path class="cls-5" d="M566.79,267.5v-56.92h37.44v13.95h-22.17v7.12h17.98v13.68h-17.98v8.22h23.38v13.95h-38.66Z"/>
      <path class="cls-5" d="M621.6,267.5v-42.97h-13.45v-13.95h42.31v13.95h-13.45v42.97h-15.41Z"/>
      <path class="cls-5" d="M655.52,267.5v-56.92h37.44v13.95h-22.17v7.12h17.98v13.68h-17.98v8.22h23.38v13.95h-38.66Z"/>
    </g>
    <g>
      <path class="cls-4" d="M299.43,193.17v-80.81h53.54v19.81h-31.66v13.73h27.15v19.81h-27.15v27.46h-21.88Z"/>
      <path class="cls-4" d="M358.73,161.79v-49.43h21.88v49.43c0,8.83,5.08,13.83,12.09,13.83s12.18-5,12.18-13.83v-49.43h21.2v49.43c0,20.89-15.16,33.83-33.77,33.83s-33.58-12.46-33.58-33.83Z"/>
      <path class="cls-4" d="M451.41,193.17v-61h-19.09v-19.81h60.06v19.81h-19.09v61h-21.88Z"/>
      <path class="cls-4" d="M498.62,161.79v-49.43h21.88v49.43c0,8.83,5.08,13.83,12.09,13.83s12.19-5,12.19-13.83v-49.43h21.21v49.43c0,20.89-15.16,33.83-33.77,33.83s-33.58-12.46-33.58-33.83Z"/>
      <path class="cls-4" d="M641.29,193.17h-25.14l-16.7-28.44h-3.17v28.44h-21.68v-80.81h27.63c19.96,0,31.47,11.38,31.47,26.38,0,9.81-4.89,17.95-13.91,22.36l21.49,32.07ZM596.29,131.69v16.08h5.85c6.91,0,9.69-3.53,9.69-8.04s-2.69-8.04-9.69-8.04h-5.85Z"/>
      <path class="cls-4" d="M644.64,193.17v-80.81h53.16v19.81h-31.47v10.1h25.52v19.42h-25.52v11.67h33.2v19.81h-54.88Z"/>
      <path class="cls-4" d="M724.95,193.17v-80.81h29.84c17.65,0,27.15,10.79,27.15,20.79,0,9.02-5.37,13.63-10.17,16.87,5.18,2.55,13.24,8.73,13.24,19.61,0,12.06-9.79,23.54-28.98,23.54h-31.09ZM746.06,144.63h7.48c4.22,0,7-2.94,7-6.67s-2.78-6.67-7.29-6.67h-7.2v13.34ZM746.06,174.25h9.31c5.28,0,7.68-2.94,7.68-6.67s-2.69-6.67-7.68-6.67h-9.31v13.34Z"/>
      <path class="cls-4" d="M790.77,161.79v-49.43h21.88v49.43c0,8.83,5.08,13.83,12.09,13.83s12.18-5,12.18-13.83v-49.43h21.2v49.43c0,20.89-15.16,33.83-33.77,33.83s-33.58-12.46-33.58-33.83Z"/>
      <path class="cls-4" d="M866.76,193.17v-80.81h21.88v80.81h-21.88Z"/>
      <path class="cls-4" d="M898.23,193.17v-80.81h21.88v61h26.48v19.81h-48.36Z"/>
      <path class="cls-4" d="M953.3,193.17v-80.81h28.4c24.56,0,43.94,16.18,43.94,40.4s-19.38,40.4-43.94,40.4h-28.4ZM975.18,173.56h6.52c11.13,0,21.68-5.88,21.68-20.79s-10.46-20.79-21.68-20.79h-6.52v41.58Z"/>
    </g>
    <g>
      <polygon class="cls-5" points="95.37 98.04 84.76 90.8 84.76 97.35 95.37 104.58 95.37 98.04"/>
      <polygon class="cls-5" points="95.37 110.06 84.76 102.82 84.76 109.37 95.37 116.6 95.37 110.06"/>
      <polygon class="cls-5" points="95.37 122.08 84.76 114.85 84.76 121.39 95.37 128.63 95.37 122.08"/>
      <polygon class="cls-5" points="95.37 134.1 84.76 126.87 84.76 133.41 95.37 140.65 95.37 134.1"/>
      <polygon class="cls-5" points="95.37 146.12 84.76 138.89 84.76 145.44 95.37 152.67 95.37 146.12"/>
      <polygon class="cls-5" points="95.37 158.15 84.76 150.91 84.76 157.46 95.37 164.69 95.37 158.15"/>
      <polygon class="cls-5" points="95.37 170.17 84.76 162.93 84.76 169.48 95.37 176.71 95.37 170.17"/>
      <polygon class="cls-5" points="95.37 182.19 84.76 174.96 84.76 181.5 95.37 188.73 95.37 182.19"/>
      <polygon class="cls-5" points="95.37 194.21 84.76 186.98 84.76 193.52 95.37 200.76 95.37 194.21"/>
      <polygon class="cls-5" points="95.37 206.23 84.76 199 84.76 205.54 95.37 212.78 95.37 206.23"/>
      <polygon class="cls-5" points="95.37 218.25 84.76 211.02 84.76 217.57 95.37 224.8 95.37 218.25"/>
      <polygon class="cls-5" points="95.37 230.28 84.76 223.04 84.76 229.59 95.37 236.82 95.37 230.28"/>
      <polygon class="cls-5" points="95.37 242.3 84.76 235.06 84.76 241.61 95.37 248.84 95.37 242.3"/>
      <path class="cls-5" d="M187.33,253.8c-94.92-16.97-178.51,6.38-186.69,52.15-.85,4.75-.84,9.55-.06,14.36,16.38-37.74,86.73-63.19,170.84-58.89,45.73,2.33,87.26,13.04,118.21,28.65-27.16-16.12-62.57-29.16-102.3-36.26Z"/>
      <path class="cls-4" d="M208.92,120.07l-4.69-4.65v140.87c1.57.36,3.14.72,4.69,1.1V120.07Z"/>
      <path class="cls-4" d="M202.06,113.28l-3.61-3.57v145.32c1.21.25,2.41.51,3.61.78V113.28Z"/>
      <path class="cls-5" d="M177.37,250.98c3.3.5,6.62,1.04,9.95,1.64,3.13.56,6.24,1.16,9.31,1.79V107.9l-39.04,32.45v15.87l.31-.14,19.45,8.7v86.21Z"/>
      <path class="cls-4" d="M175.43,250.7v-80.34h0v-4.33l-17.51-7.83-17.51,7.83v8.09l17.51-7.83,5.99,2.68v80.25c.87.1,1.74.2,2.61.3v-79.39l1.88.84v78.77c.87.11,1.74.22,2.61.34v-77.94l1.88.84v77.36c.84.12,1.69.24,2.54.36Z"/>
      <path class="cls-5" d="M162.02,249.01v-77.74l-4.1-1.83-17.51,7.83v70.12c3.4.15,6.84.35,10.3.6l5.46-2.26v-5.97l-13.67,5.65v-2.04l13.67-5.65v-5.97l-13.67,5.65v-2.04l13.67-5.65v-5.97l-13.67,5.65v-2.04l13.67-5.65v-5.97l-13.67,5.65v-2.04l13.67-5.65v-5.97l-13.67,5.65v-2.04l13.67-5.65v-5.97l-13.67,5.65v-2.04l13.67-5.65v-5.97l-13.67,5.65v-2.04l13.67-5.65v-5.97l-13.67,5.65v-2.04l13.67-5.65v-5.03l-13.67,5.65v-2.03l15.37-6.93.05.04v75.27c1.36.13,2.73.27,4.1.41Z"/>
      <path class="cls-1" d="M156.17,247.77l-1.33.55c.44.04.88.08,1.33.12v-.67Z"/>
      <path class="cls-5" d="M137.3,178.91v-14.89l17.2-7.69v-17.44l23.29-19.36V37.22l-47.05-21.21-.14.11v230.99c2.22.03,4.46.08,6.71.15v-68.36ZM140.59,45.13h29.32v5.24h-29.32v-5.24ZM140.59,56.78h29.32v5.24h-29.32v-5.24ZM140.59,68.43h29.32v5.24h-29.32v-5.24Z"/>
      <path class="cls-4" d="M124.96,20.48l-10.14,7.85v218.99c3.34-.13,6.72-.21,10.14-.23V20.48Z"/>
      <path class="cls-4" d="M109.18,32.69l-10,7.74v207.95c3.28-.32,6.62-.58,10-.78V32.69Z"/>
      <path class="cls-5" d="M84.76,247.09v2.46c.98-.15,1.97-.3,2.96-.44l-2.96-2.02Z"/>
      <path class="cls-4" d="M83.18,246.73l-27.95,5.06v-5.48l27.95-5.06v-6.55l-27.95,5.06v-5.48l27.95-5.06v-6.55l-27.95,5.06v-5.48l27.95-5.06v-6.55l-27.95,5.06v-5.48l27.95-5.06v-6.55l-27.95,5.06v-5.48l27.95-5.06v-6.55l-27.95,5.06v-5.48l27.95-5.06v-6.55l-27.95,5.06v-5.48l27.95-5.06v-6.55l-27.95,5.06v-5.48l27.95-5.06v-6.55l-27.95,5.06v-5.48l27.95-5.06v-6.55l-27.95,5.06v-5.48l27.95-5.06v-6.55l-27.95,5.06v-5.48l27.95-5.06v-6.55l-27.95,5.06v-5.48l27.95-5.06v-6.55l-27.95,5.06v-5.48l27.95-5.06v-6.55l-30.25,5.48v161.62c9.19-3.11,19.34-5.58,30.25-7.37v-3.44Z"/>
    </g>
    <g>
      <path d="M28.87,280.38c.44-1.99,5.92-7.21,5.58-9.34-3.56-2.39-6.51-6.09-8.59-9.81-1.31-2.35-4.52-7.74-1.66-9.88l21.84-9.84-.11-7.01-4.9-4.52c.47-4.45-.64-10.09.04-14.37.36-2.3,2.41-2.84,2.73-4.47.45-2.39-.02-6.17-.55-8.57,3.1-.33,6.63-1.52,9.67-1.68,3.91-.21,8.92,1.54,12.16,1.11,2.85-.38,9.01-4.32,12.48-5.27,6.07-1.64,19.44-3.74,25.75-4.15,9.88-.64,22.71,3.02,31.86,6.67l.83-4.99c2.08-2.42,7.09,2.75,8.06,4.68,1.19,2.38.69,5.82,1.36,6.95.23.39,3.83,2.63,4.46,2.75,21.22-3.57,43.19-6,64.6-2.03,3.78.7,11.82,1.73,10.43,7.21-.18.7-2.32.7-1.6,2.2l8.82,14.48c6.82,1.68,13.73,2.95,20.45,5.03,4.86,1.5,11.83,2.79,13.05,8.55.48,2.3.6,6.63.75,9.23.06,1.07-.71,2.05-.43,3.14.18.71,1.52,1.57,2.05,2.43,2.25,3.63,1.15,8.77,1.27,12.68.03,1.01.96,2.14,1.08,3.82.1,1.44-.59,8.61-1.11,9.47-1.07,1.8-4.74,2.47-6.61,3.08.2,6.33-.95,12.63-5.25,17.45l-4.79,3.51c2.45.24,25.48,1.42,25.48,3.05-9.79,3-20.53,2.51-30.74,3.05-62.34,3.28-126.34,3-188.83.53-14.66-.58-29.67-.18-44.05-3.31.5-1.12,3.14-1.28,4.31-1.49,3.35-.59,7.51-1.02,10.92-1.26,5.34-.39,10.58-.75,15.77.54l-3.61-2.75-3.56-5.26-9.45.82v-22.43ZM137.96,207.55c1.14-4.79-2.21-5.88-5.97-7.59-19.03-8.66-49.61-6.15-67.08,5.15-12.05,7.8-13.82,23.05-5.82,34.53.51.74,4.55,5.69,5.22,5.02-1.94-9-1.96-20.6,3.87-28.24-3.04,8.51-3.66,17.25-1.38,26.03,3.55,13.73,20.28,22.03,32.95,25.47-16.76-13.41-20.54-42.88-6.1-59.25-.99,3.14-3,5.83-4.03,8.98-6.83,21.01,3.26,53.5,30.06,50.83.4-.34-4.71-7.28-5.27-8.29-11.37-20.57-2.23-50.98,23.54-52.63ZM143.66,214.07c-1.1-2.51.66-10.3-.4-13.74-.39-1.26-5.43-6.31-6.4-5.51-1.07.9,1.06,1.14,1.12,1.46.5,2.65,1.1,3.68,1.54,5.57.91,3.91-1.17,8.54,1.23,12.07l-3.8.36c-1.55,2.96-.13,6.15-.06,9.04.28,11.63.19,23.28.53,34.91l.91,1.31,4.08.08c-4.05,3.59.76,12.53,5.82,12.23,2.85-.17,2.05-2.27,2.58-2.72.5-.42,3.57.26,3.78-1.2-5.29.33-9.48.49-9.93-5.9-.16-2.25.85-2.58,1.1-4.32,1.02-7.19-.43-15.52-.61-22.71-.17-7.07,1.16-14.88-1.49-20.93ZM52.13,268.47h10.52c-1.58-7.32-7.65-14.89-9.17-22.12-2.5-11.9-2.24-25.74-4.65-38-.37-1.87.92.39,1.63.07,2.27-3.06,5.64-4.42,9.41-4.2.15-.79-1.06-.73-1.64-.84-4.63-.83-8.26.4-12.75.85l1.1,17.16c-3-.7-2.56-4.82-1.66-7.19-1.05-.5-1.9,1.43-1.94,1.92-.33,3.66.81,8.84.29,12.74.41,2.09,3.96,2.59,4.41,5.01.63,3.4.15,8.61.57,12.16.9,7.52,3.09,14.89,3.87,22.44ZM222.7,213.09c.25-2.11-.23-2.57-2.09-3.17-8.31-2.67-18.88-2.21-27.51-3.5l-17.74.58-24.1,3.88c.03.96-.37,1.16.7.98,5.96-1.03,11.96-1.65,17.93-2.6,2.61-.02,3.41,1.84,4.35,3.85,1.8,3.89,7.08,20.2,3.9,23.27l-3.66.77-1.42,3.57c-3.78-.08-7.42,1.39-9.33-2.63-1.51,1.32-4.23,1.38-5.79.18-1.08-.82-1.32-3.1-1.82-3.45-.92-.63-3.33.24-3.75-2.06s-.2-9.03-.02-11.65c.07-1.06.43-4.72.67-5.42.56-1.62,3.11-.72,2.67-2.58-5.71-.46-6.17.56-6.63,5.82-1.02,11.63-1.44,28.31-.59,39.89.12,1.64.37,4.35,1.7,5.5,2.24,1.94,14.62.37,18.17.75,2.06-5.32,6.29-10.49,11.63-12.73l.12-12.34,2.18-5.84c.84,2.72-.84,4.82-1.13,6.89-.45,3.24.39,7.46.03,10.83l3.32.54c-13.42,4.05-18.52,21.16-19.37,33.79l4.32-13.11c3.28-5.46,7.84-9.26,14.5-7.09,5.75,1.87,7.09,8.83,13.85,7.47-1.36-4.2-5.24-7.37-8.83-9.72l-5.56-1.9c6.89-.55,11.31,3.9,15.21,8.88.47.6.7,1.92.95,2.08.21.14,4.7.82,4.88.65-.72-2.26-1.8-2.39-1.54-5.1,1.24-12.62,14.33-9.13,23.14-8.75,0-1.99-2.9-2.19-3.81-3.66-1.32-2.11-.41-12.33,1.04-14.35,1.24-1.72,3.78-2.33,5.8-2.5,9.39-.83,20.19.42,29.65.57.13-.81-.96-.74-1.55-.93-8.73-2.95-17.8-4.97-26.82-6.83l-4.04-6.62,1.38,5.53c-14.73-2.07-29.57-.57-44.3-.83-.74-.46-1.04-1.19-1.38-1.94-.93-2.05-5.16-14.71-5.09-16.27.09-1.93,2.51-1.91,3.96-2.02,13.32-1.04,27.64,1.23,40.92,2.22l.91,1.12ZM59.88,207.01c-5.71,1.01-11.38,7.6-7.47,13.28.89-5.19,3.37-9.96,7.47-13.28ZM172.86,212.54c-.15-.62-.92-1.37-1.5-1.54-1.85-.54-10.77.66-12.82,1.35-2.44.83-2.39,2.63-2.34,4.91.04,1.8.69,11.37,1.12,12.07.31.5,1.67.84,1.68,1.21,0,.19-1.3.98-1.54,1.77-1.98,6.48,8.28,7.91,7.1,1.01-.55-3.2-2.92.99-5-.02-.12-2.82,2.63-1.8,2.73-1.97.14-.24-.12-1.01.2-1.44.37-.51,1.27-.28,1.52-1.54.72-3.64-1.56-10.25-.53-14.39l-1.71-.58,2.22-.83,1.22,25.64c.65,2.22,5.74,1.8,7.41.98,1.54-2.14-5.41-7.64-6.29-9.85l-1.23-16.49c2.61-.59,5.15-1.06,7.76-.29ZM196.4,211.43c-4.07-.57-10.56,0-14.95,0-.29,0-1.24.73-1.88.61.11,2.43,4.19,16.56,6.31,16.56h8.31c.53-.42.64-.46.62-1.14-.07-2.25-5.11-13.46-4.22-14.36l7.2-.56c.2-.56-1.15-1.07-1.38-1.1ZM216.53,217.6c-2.36.19-10.56-.8-11.97.61-1.15,2.57-.8,5.97-.42,8.74l4.99-2.25c3.37-.55,5.09,2.57,8.59,1.69l-1.19-8.78ZM219.37,219.19l-1.11.28,1.23,6.8,4.31,1.78-4.43-8.86ZM122.46,271.24h16.61c-2.22-2.68-2.27-5.98-2.29-9.34l-2.17-.99c-.66-8.73.18-18.46-.53-27.06-.07-.83.44-1.59-.82-1.38-2.91,4.81-3.25,10.65-.81,15.75-1.39.62-1.73,1.9-2.33,3.27-2.85,6.43-4.97,13.25-7.66,19.75ZM226.97,240.9c-4.99,2.15-3.16,8.49-4.17,12.78.34,2.33,7.57,5.97,9.94,6.2,8.8.85,19.92-1.21,29.03-.24,2.19.18,2.77-3.1,2.95-4.8.23-2.16-.23-8.09-.73-10.23-.79-3.4-3.67-3.63-6.66-3.86-9.74-.75-20.52.5-30.36.14ZM45.92,250.09l.4-6.53-19.63,9.17c-2.63,1.19.3,6.82,1.59,8.2,1.39,1.5.87-.79,1.5-1.36,2.02-1.46,15.61-8.54,16.15-9.48ZM33.4,267.82c.83.49,2.07-.12,2.87-.53.89-.46,8.89-7.3,9.24-7.92.62-1.1,2.24-6.65,1.63-7.51l-16.54,10.6c-.68.88,2.53,5.2,2.8,5.35ZM49.92,268.48c.4-.41-.56-7.29-1.38-8.31-2.69,2.66-5.6,5.09-8.43,7.59-.37.33-1.06-.03-.71,1.26l10.52-.55ZM231.01,271.24c-.17-2.36-1.23-10.08-3.6-10.52-2.78-.52-16.03-.15-18.71.67-2.29.71-6.81,9.71-1.77,10.39l24.08-.54ZM263.41,260.72h-31.57c-.08,0-1.36.58-1.38.88l2.22,7.98c1.7-.36,2.15-1.44,4.13-1.67,7.62-.91,16.63,1.04,24.32-.41l3.1,2.64-.21-8.59-.62-.83ZM264.79,260.72v8.86l2.77.55c.2-1.46.04-1.39-1.11-1.93,1.22-.86,1.6-2.94.82-4.18-.43-.68-3.69-1.67.29-2.47l-2.77-.83ZM198.89,299.49v-11.35c0-.79-1.38-4.91-1.79-5.96-1.86-4.68-5.69-9.61-10.94-10.38l1.11-1.65c-7.4-1.01-15.7,6.49-16.63,13.56-.16,1.19.06,1.41.7.15,3.42-6.67,8.78-13.24,17.22-9.19,7.99,3.83,9.48,15.12,9.78,22.9.03.68-.42,2.05.56,1.93ZM88.68,270.69h-50.67c-3.89,5.32-8.72,9.98-6.65,17.17l8.92-13.89,39.02-.21.85-2.01,8.52-1.07ZM162.89,273.46h-24.92v2.22h23.26c.14,0,.63-1.77,1.66-2.22ZM268.11,283.15v-8.86c-.35-.55-.76-.72-1.38-.83-2.95-.54-9.92-.1-13.32-.03-14.1.31-28.52.51-42.64,1.11-3.13.13-6.54.95-9.83.69-3.2.96.37,7.4,1.81,9.04,4.36,4.96,14.54,3.74,20.81,3.61,12.17-.26,27.84-.73,39.87-2.22,1.19-.15,4.38-1.41,4.69-2.51ZM82.59,274.01h-1.66s.55,12.18.55,12.18h8.31l-5.38-1.54c-.45-.2-1.82-1.25-1.82-1.5v-9.14ZM121.36,274.01h-23.54c-1.89,0-4.99,5.2-4.71,7.2l4.37-.06,2.55-4.93-.28,4.99h10.8c1.29-1.68,1.37-4.03,3.59-4.98l-1.1,4.98h4.43c.35.36-.87,2.76,1.1,2.22-.47-3.95.26-6.43,2.77-9.41ZM161.79,287.86c-.52-4.19,1.34-7.88,2.76-11.63-5.32,2.35-5.91,6.15-5.54,11.63h2.77ZM51.57,276.79c-5.39-.74-10.33.9-11.62,6.64,3.69-5.89,9.34-7.5,12.83-.38l2.66,7.57c-.27-4.82-1.66-9.91-5.53-13.01l1.66-.82ZM74.83,276.79c-5.55-.76-10.08.91-11.62,6.64,7.89-10.11,12.16-3.76,14.88,5.36.27.91-.44,1.56,1.18,1.28-.94-4.53-1.93-9.8-6.09-12.46l1.66-.82ZM142.01,278.24c-.31-.15.09-1.46-.72-.64-1.93,3.01-2.41,6.74-2.21,10.25h4.44c-.2-3.17-.02-5.9,1.11-8.86-1.03.09-1.74-.33-2.61-.76ZM157.35,287.86c.12-2.76-.53-5.74.89-8.27l-.68-1.04-10.64.54c-1.45,2.84-2.09,5.54-1.75,8.77h12.18ZM180.47,281.88c-10.89,1.84-9.71,25.07,1.52,24.28,11.62-.81,10.2-26.26-1.52-24.28ZM45.9,284.62c-5.95,1.16-5.25,17.75.95,17.1,6-.62,5.5-18.36-.95-17.1ZM71.88,285.83c-3.93-3.93-7.55,1.91-8.07,5.67-.51,3.68.65,15.56,6.44,13.11,5.2-2.2,5.26-15.15,1.63-18.78ZM242.64,308.9c9.14-.9,14.6-9.53,14.83-18.17.06-2.23-1.66-2.45-2.07-.36-1.27,6.42-1.59,12.53-8.14,16.23-1.52.86-3.69.74-4.62,2.3ZM161.23,291.73c.22-.64-.24-2.22-.83-2.22h-22.43v2.22h23.26ZM247.62,290.63c-2.34.17-1.9,3.47-2.84,5.19-1.23,2.26-3.07,3.02-5.45,3.42-1.24.21-2.58-1.1-2.23.8,6.81,1.1,10.63-2.69,10.52-9.41ZM134.65,306.69h34.34l-2.58-6.67c-4.77.1-9.56-.05-14.33,0-1.48.02-2.83.66-4.41.62-2.52-.05-4.62-1.68-7.12-1.75l-2.9,4.98-3,2.82ZM232.67,307.25c-3.11-.95-4.34-4.39-6.46-6.56l-18.11-.02c-2.33,4.42-2.96,8.71-7.28,12.11-1.18.93-2.86,1.11-3.59,2.21,2.56-.14,5.82-1.97,7.71-3.64,1.05-.93,2.95-4.05,3.2-4.12,1.76-.49,4.15.53,5.96.58,6.13.18,12.64-.63,18.57.53v-1.1ZM111.94,307.24l-1.43-2.72-6.31,2.45,7.74.27Z"/>
      <path class="cls-3" d="M137.96,207.55c-25.77,1.65-34.91,32.05-23.54,52.63.56,1.01,5.66,7.95,5.27,8.29-26.8,2.67-36.89-29.82-30.06-50.83,1.02-3.15,3.03-5.84,4.03-8.98-14.44,16.37-10.66,45.84,6.1,59.25-12.68-3.44-29.4-11.73-32.95-25.47-2.27-8.78-1.66-17.52,1.38-26.03-5.84,7.64-5.81,19.24-3.87,28.24-.68.67-4.71-4.28-5.22-5.02-7.99-11.48-6.23-26.74,5.82-34.53,17.47-11.3,48.05-13.8,67.08-5.15,3.75,1.71,7.11,2.8,5.97,7.59Z"/>
      <path class="cls-3" d="M222.7,213.09l-.91-1.12c-13.28-.99-27.6-3.26-40.92-2.22-1.45.11-3.86.09-3.96,2.02-.08,1.55,4.16,14.22,5.09,16.27.34.75.64,1.48,1.38,1.94,14.74.26,29.58-1.25,44.3.83l-1.38-5.53,4.04,6.62c9.02,1.86,18.09,3.88,26.82,6.83.58.2,1.67.12,1.55.93-9.46-.15-20.25-1.4-29.65-.57-2.02.18-4.56.78-5.8,2.5-1.45,2.02-2.36,12.24-1.04,14.35.92,1.46,3.81,1.66,3.81,3.66-8.8-.38-21.9-3.87-23.14,8.75-.27,2.71.81,2.84,1.54,5.1-.18.17-4.67-.52-4.88-.65-.25-.17-.49-1.49-.95-2.08-3.9-4.99-8.32-9.43-15.21-8.88l5.56,1.9c3.59,2.34,7.46,5.52,8.83,9.72-6.75,1.37-8.09-5.6-13.85-7.47-6.66-2.16-11.22,1.63-14.5,7.09l-4.32,13.11c.85-12.62,5.96-29.73,19.37-33.79l-3.32-.54c.37-3.37-.48-7.59-.03-10.83.29-2.07,1.97-4.17,1.13-6.89l-2.18,5.84-.12,12.34c-5.34,2.25-9.57,7.42-11.63,12.73-3.55-.39-15.94,1.18-18.17-.75-1.32-1.15-1.58-3.86-1.7-5.5-.86-11.58-.43-28.26.59-39.89.46-5.26.93-6.28,6.63-5.82.43,1.86-2.11.96-2.67,2.58-.24.7-.6,4.36-.67,5.42-.18,2.63-.4,9.34.02,11.65s2.83,1.43,3.75,2.06c.5.34.74,2.63,1.82,3.45,1.56,1.19,4.28,1.14,5.79-.18,1.91,4.02,5.55,2.55,9.33,2.63l1.42-3.57,3.66-.77c3.18-3.07-2.1-19.38-3.9-23.27-.93-2.01-1.74-3.86-4.35-3.85-5.97.95-11.97,1.57-17.93,2.6-1.07.19-.66-.02-.7-.98l24.1-3.88,17.74-.58c8.63,1.29,19.2.83,27.51,3.5,1.86.6,2.34,1.06,2.09,3.17ZM197.23,249.65c.79-8.62-5.22-7.58-11.67-6.96-.82.57-1,6.12.31,6.96h11.35ZM177.29,251.31h-23.26l-.55,1.1c.11-1.96-.12-4.8-2.77-4.43l.49,5.2,1.73.33c.13,1.47-1.88,2.12-2.11,3.71-.13.91.55,4.66,1.23,5.2l15.75.41c1.96-4.73,5.78-8.23,9.5-11.54Z"/>
      <path class="cls-3" d="M268.11,283.15c-.32,1.09-3.51,2.36-4.69,2.51-12.02,1.49-27.69,1.97-39.87,2.22-6.26.13-16.44,1.35-20.81-3.61-1.44-1.64-5.01-8.08-1.81-9.04,3.3.26,6.7-.56,9.83-.69,14.12-.6,28.54-.8,42.64-1.11,3.4-.08,10.37-.51,13.32.03.62.11,1.04.28,1.38.83v8.86ZM243.72,277.36l-6.1.24c-.98,3.99,2.79,5.26,6.09,4.7v-4.94ZM259.81,277.34h-4.99s0,4.43,0,4.43c3.37.58,5.17-1.1,4.99-4.43Z"/>
      <path class="cls-3" d="M143.66,214.07c2.65,6.04,1.31,13.86,1.49,20.93.18,7.19,1.62,15.53.61,22.71-.25,1.74-1.26,2.07-1.1,4.32.45,6.39,4.64,6.23,9.93,5.9-.21,1.46-3.29.78-3.78,1.2-.53.45.26,2.55-2.58,2.72-5.05.31-9.87-8.64-5.82-12.23l-4.08-.08-.91-1.31c-.34-11.63-.25-23.28-.53-34.91-.07-2.89-1.49-6.08.06-9.04l3.8-.36c-2.4-3.52-.32-8.15-1.23-12.07-.44-1.89-1.03-2.92-1.54-5.57-.06-.32-2.19-.56-1.12-1.46.96-.81,6.01,4.25,6.4,5.51,1.06,3.44-.7,11.23.4,13.74Z"/>
      <path class="cls-3" d="M52.13,268.47c-.77-7.54-2.97-14.92-3.87-22.44-.43-3.55.06-8.76-.57-12.16-.45-2.42-4-2.92-4.41-5.01.52-3.91-.62-9.08-.29-12.74.05-.49.89-2.42,1.94-1.92-.9,2.38-1.35,6.49,1.66,7.19l-1.1-17.16c4.48-.45,8.12-1.68,12.75-.85.58.1,1.79.05,1.64.84-3.77-.22-7.14,1.14-9.41,4.2-.72.32-2-1.95-1.63-.07,2.4,12.26,2.15,26.1,4.65,38,1.52,7.23,7.58,14.8,9.17,22.12h-10.52Z"/>
      <path class="cls-3" d="M122.46,271.24c2.69-6.5,4.81-13.32,7.66-19.75.61-1.37.94-2.65,2.33-3.27-2.44-5.1-2.1-10.94.81-15.75,1.26-.21.76.55.82,1.38.7,8.59-.13,18.32.53,27.06l2.17.99c.01,3.36.06,6.66,2.29,9.34h-16.61Z"/>
      <path class="cls-3" d="M172.86,212.54c-2.61-.77-5.15-.3-7.76.29l1.23,16.49c.88,2.21,7.83,7.7,6.29,9.85-1.66.81-6.75,1.24-7.41-.98l-1.22-25.64-2.22.83,1.71.58c-1.03,4.14,1.25,10.75.53,14.39-.25,1.26-1.15,1.04-1.52,1.54-.31.43-.06,1.2-.2,1.44-.1.17-2.85-.85-2.73,1.97,2.09,1.01,4.46-3.18,5,.02,1.18,6.9-9.09,5.47-7.1-1.01.24-.79,1.54-1.59,1.54-1.77-.01-.37-1.37-.71-1.68-1.21-.43-.7-1.08-10.27-1.12-12.07-.05-2.28-.1-4.08,2.34-4.91,2.05-.69,10.97-1.89,12.82-1.35.58.17,1.34.92,1.5,1.54ZM171.19,238.02c.48-.61-4.16-5.37-4.97-6.09l.61,5.47,4.36.62Z"/>
      <path class="cls-3" d="M88.68,270.69l-8.52,1.07-.85,2.01-39.02.21-8.92,13.89c-2.08-7.2,2.76-11.85,6.65-17.17h50.67Z"/>
      <path class="cls-3" d="M134.65,306.69l3-2.82,2.9-4.98c2.51.08,4.61,1.7,7.12,1.75,1.57.03,2.93-.61,4.41-.62,4.78-.05,9.56.1,14.33,0l2.58,6.67h-34.34Z"/>
      <path class="cls-3" d="M196.4,211.43c.23.03,1.58.54,1.38,1.1l-7.2.56c-.89.91,4.15,12.11,4.22,14.36.02.68-.09.72-.62,1.14h-8.31c-2.13,0-6.2-14.12-6.31-16.56.64.12,1.59-.61,1.88-.61,4.39,0,10.89-.57,14.95,0Z"/>
      <path class="cls-3" d="M232.67,307.25v1.1c-5.93-1.16-12.44-.35-18.57-.53-1.8-.05-4.19-1.08-5.96-.58-.25.07-2.15,3.19-3.2,4.12-1.89,1.67-5.15,3.49-7.71,3.64.73-1.1,2.41-1.28,3.59-2.21,4.32-3.4,4.95-7.68,7.28-12.11l18.11.02c2.11,2.17,3.35,5.61,6.46,6.56Z"/>
      <path class="cls-3" d="M226.97,240.9c9.85.36,20.62-.88,30.36-.14,3,.23,5.88.45,6.66,3.86.49,2.13.96,8.06.73,10.23-.18,1.69-.76,4.98-2.95,4.8-9.11-.97-20.23,1.09-29.03.24-2.37-.23-9.6-3.86-9.94-6.2,1.01-4.29-.82-10.63,4.17-12.78ZM237.54,242.06c-2.55.1-6.75.07-8.99.43-.99.16-1.91.53-2.47,1.41-.38.6-1.28,7.99-1.18,8.77.3,2.26,5.96,5.05,8.03,5.3,6.44.79,19.3.38,26.08-.01,1.09-.06,3.35.01,3.83-1.09.56-1.29.46-7.98.24-9.66-.43-3.2-1.46-4.42-4.66-4.75-6.11-.63-14.68-.63-20.88-.39Z"/>
      <path class="cls-3" d="M121.36,274.01c-2.51,2.98-3.24,5.46-2.77,9.41-1.97.54-.75-1.86-1.1-2.22h-4.43s1.1-4.98,1.1-4.98c-2.22.95-2.3,3.3-3.59,4.98h-10.8l.28-4.99-2.55,4.93-4.37.06c-.28-2,2.82-7.2,4.71-7.2h23.54Z"/>
      <path class="cls-3" d="M263.41,260.72l.62.83.21,8.59-3.1-2.64c-7.69,1.45-16.7-.5-24.32.41-1.98.24-2.43,1.31-4.13,1.67l-2.22-7.98c.03-.31,1.3-.88,1.38-.88h31.57ZM262.57,262.94h-28.8v2.77h28.24l.55-2.77Z"/>
      <path class="cls-3" d="M180.47,281.88c11.72-1.97,13.13,23.47,1.52,24.28-11.23.78-12.41-22.45-1.52-24.28ZM180.61,304.47c10.95-.15,10.91-19.7.82-21.04-.73-.1-1.13-.16-.5.56.04.05,1.7.02.78,1.09-.37.43-2.2.82-3.24,2.59-2.84,4.86-1.91,12.93,3.79,15.15l-1.66,1.65Z"/>
      <path class="cls-3" d="M45.92,250.09c-.54.95-14.13,8.02-16.15,9.48-.63.57-.11,2.85-1.5,1.36-1.28-1.38-4.21-7.01-1.59-8.2l19.63-9.17-.4,6.53Z"/>
      <path class="cls-3" d="M231.01,271.24l-24.08.54c-5.04-.68-.52-9.68,1.77-10.39,2.68-.83,15.93-1.19,18.71-.67,2.37.44,3.44,8.16,3.6,10.52ZM214.95,262.38c-1.64-.03-5.25.24-6.49,1.26-.88.72-3.23,6.49-1.54,6.49h8.03v-7.75ZM226.58,262.38h-9.97v7.75h8.86c-1.01-2.7-1.12-5.68,1.11-7.75Z"/>
      <path class="cls-3" d="M33.4,267.82c-.27-.16-3.48-4.48-2.8-5.35l16.54-10.6c.62.86-1,6.41-1.63,7.51-.35.62-8.35,7.47-9.24,7.92-.79.41-2.04,1.02-2.87.53Z"/>
      <path class="cls-3" d="M71.88,285.83c3.63,3.63,3.57,16.59-1.63,18.78-5.79,2.45-6.95-9.43-6.44-13.11.52-3.77,4.13-9.6,8.07-5.67ZM71.37,302.11c2.17-2.05.66-5.5.65-7.88-.02-2.54,1.84-4.94-1.02-7.24-1.55-1.25-2.19-.72-3.92-.23v1.1s2.21-.55,2.21-.55c-2.52,4.28-2.38,10.01.54,14.12l-1.65,1.37c.98.01,2.44,0,3.18-.69Z"/>
      <path class="cls-3" d="M216.53,217.6l1.19,8.78c-3.5.88-5.22-2.24-8.59-1.69l-4.99,2.25c-.38-2.77-.73-6.17.42-8.74,1.41-1.41,9.61-.42,11.97-.61Z"/>
      <path class="cls-3" d="M157.35,287.86h-12.18c-.34-3.22.3-5.93,1.75-8.77l10.64-.54.68,1.04c-1.41,2.53-.76,5.5-.89,8.27Z"/>
      <path class="cls-3" d="M198.89,299.49c-.97.12-.53-1.25-.56-1.93-.3-7.78-1.8-19.07-9.78-22.9-8.44-4.05-13.8,2.52-17.22,9.19-.65,1.26-.86,1.05-.7-.15.93-7.07,9.23-14.56,16.63-13.56l-1.11,1.65c5.25.78,9.08,5.7,10.94,10.38.42,1.05,1.79,5.17,1.79,5.96v11.35Z"/>
      <path class="cls-3" d="M45.9,284.62c6.46-1.26,6.95,16.48.95,17.1-6.21.65-6.9-15.94-.95-17.1ZM45.49,300.04c2.42.44,4.07-1.57,4.16-3.82.04-1.07-.86-1.92-.9-3.12-.07-1.89,1.35-2.21.6-4.36-.79-2.29-2.94-3.62-4.97-1.71l2.21-.28c-2.13,4.43-1.81,8.47.56,12.73l-1.66.55Z"/>
      <path class="cls-3" d="M162.89,273.46c-1.03.44-1.52,2.22-1.66,2.22h-23.26v-2.22h24.92Z"/>
      <path class="cls-3" d="M161.23,291.73h-23.26v-2.22h22.43c.59,0,1.05,1.57.83,2.22Z"/>
      <path class="cls-3" d="M49.92,268.48l-10.52.55c-.36-1.29.33-.93.71-1.26,2.83-2.5,5.74-4.94,8.43-7.59.83,1.02,1.79,7.9,1.38,8.31Z"/>
      <path class="cls-3" d="M142.01,278.24c.87.43,1.58.85,2.61.76-1.12,2.96-1.31,5.69-1.11,8.86h-4.44c-.2-3.51.29-7.24,2.21-10.25.81-.83.41.48.72.64Z"/>
      <path class="cls-3" d="M242.64,308.9c.93-1.56,3.1-1.44,4.62-2.3,6.55-3.7,6.86-9.81,8.14-16.23.41-2.09,2.13-1.87,2.07.36-.23,8.63-5.69,17.26-14.83,18.17Z"/>
      <path class="cls-3" d="M74.83,276.79l-1.66.82c4.16,2.66,5.14,7.93,6.09,12.46-1.61.27-.9-.37-1.18-1.28-2.72-9.12-6.99-15.47-14.88-5.36,1.55-5.73,6.08-7.4,11.62-6.64Z"/>
      <path class="cls-3" d="M161.79,287.86h-2.77c-.38-5.48.22-9.28,5.54-11.63-1.42,3.76-3.28,7.44-2.76,11.63Z"/>
      <path class="cls-3" d="M59.88,207.01c-4.1,3.32-6.58,8.09-7.47,13.28-3.91-5.68,1.76-12.28,7.47-13.28Z"/>
      <path class="cls-3" d="M51.57,276.79l-1.66.82c3.87,3.11,5.26,8.2,5.53,13.01l-2.66-7.57c-3.49-7.12-9.14-5.52-12.83.38,1.29-5.74,6.24-7.38,11.62-6.64Z"/>
      <path class="cls-3" d="M82.59,274.01v9.14c0,.25,1.38,1.3,1.82,1.5l5.38,1.54h-8.31l-.55-12.19h1.66Z"/>
      <path class="cls-3" d="M247.62,290.63c.12,6.72-3.71,10.51-10.52,9.41-.36-1.91.99-.59,2.23-.8,2.38-.4,4.22-1.16,5.45-3.42.93-1.72.5-5.01,2.84-5.19Z"/>
      <path class="cls-3" d="M264.79,260.72l2.77.83c-3.98.81-.72,1.79-.29,2.47.79,1.24.4,3.32-.82,4.18,1.14.54,1.3.47,1.11,1.93l-2.77-.55v-8.86Z"/>
      <polygon class="cls-3" points="219.37 219.19 223.8 228.05 219.49 226.27 218.26 219.47 219.37 219.19"/>
      <polygon class="cls-3" points="111.94 307.24 104.19 306.97 110.5 304.51 111.94 307.24"/>
      <path d="M177.29,251.31c-3.72,3.31-7.54,6.8-9.5,11.54l-15.75-.41c-.68-.55-1.36-4.29-1.23-5.2.23-1.59,2.24-2.24,2.11-3.71l-1.73-.33-.49-5.2c2.65-.37,2.88,2.46,2.77,4.43l.55-1.1h23.26Z"/>
      <path d="M197.23,249.65h-11.35c-1.31-.84-1.13-6.39-.31-6.96,6.45-.62,12.45-1.66,11.67,6.96Z"/>
      <path d="M243.72,277.36v4.94c-3.3.57-7.08-.7-6.1-4.7l6.1-.24Z"/>
      <path d="M259.81,277.34c.19,3.33-1.61,5.01-4.99,4.43v-4.44s4.99,0,4.99,0Z"/>
      <path d="M171.19,238.02l-4.36-.62-.61-5.47c.81.72,5.45,5.49,4.97,6.09Z"/>
      <path d="M237.54,242.06c6.2-.24,14.77-.24,20.88.39,3.2.33,4.23,1.55,4.66,4.75.22,1.68.32,8.37-.24,9.66-.48,1.1-2.74,1.03-3.83,1.09-6.78.39-19.64.8-26.08.01-2.07-.25-7.74-3.05-8.03-5.3-.1-.78.8-8.18,1.18-8.77.56-.88,1.48-1.25,2.47-1.41,2.24-.35,6.43-.33,8.99-.43Z"/>
      <polygon points="262.57 262.94 262.02 265.71 233.78 265.71 233.78 262.94 262.57 262.94"/>
      <path d="M180.61,304.47l1.66-1.65c-5.7-2.23-6.63-10.29-3.79-15.15,1.03-1.77,2.87-2.16,3.24-2.59.92-1.07-.73-1.04-.78-1.09-.64-.72-.24-.66.5-.56,10.09,1.34,10.13,20.89-.82,21.04ZM185.59,294.5c.21-5.55-7.99-4.26-5.72.99,1.07,2.48,4.26.49,3.51-2.09l2.21,1.1Z"/>
      <path d="M226.58,262.38c-2.22,2.08-2.12,5.05-1.11,7.75h-8.86v-7.75h9.97ZM222.07,264.13c-1.59-.83-3.24-.82-4.83,0v4.27s4.39.39,4.39.39l.44-4.66Z"/>
      <path d="M214.95,262.38v7.75h-8.03c-1.7,0,.65-5.76,1.54-6.49,1.25-1.02,4.85-1.3,6.49-1.26ZM213.28,264.05c-3.6-.47-5.39.73-5.29,4.44l5.22.47.07-4.91Z"/>
      <path d="M71.37,302.11c-.74.7-2.2.71-3.18.69l1.65-1.37c-2.92-4.11-3.07-9.84-.54-14.12l-2.21.55v-1.1c1.72-.49,2.36-1.02,3.91.23,2.85,2.3,1,4.7,1.02,7.24.02,2.38,1.52,5.84-.65,7.88Z"/>
      <path d="M45.49,300.04l1.66-.55c-2.37-4.26-2.69-8.3-.56-12.73l-2.21.28c2.03-1.91,4.18-.58,4.97,1.71.75,2.15-.67,2.47-.6,4.36.04,1.2.94,2.05.9,3.12-.09,2.25-1.74,4.26-4.16,3.82Z"/>
      <path class="cls-3" d="M185.59,294.5l-2.21-1.1c.74,2.58-2.44,4.57-3.51,2.09-2.27-5.24,5.93-6.54,5.72-.99Z"/>
      <path class="cls-3" d="M222.07,264.13l-.44,4.66-4.39-.39v-4.27c1.59-.82,3.24-.83,4.83,0Z"/>
      <path class="cls-3" d="M213.28,264.05l-.07,4.91-5.22-.47c-.1-3.71,1.69-4.91,5.29-4.44Z"/>
    </g>
  </g>
</svg>